<svg xmlns="http://www.w3.org/2000/svg" xmlns:xlink="http://www.w3.org/1999/xlink" fill="none" version="1.1" width="48" height="48" viewBox="0 0 48 48"><defs><clipPath id="master_svg0_1_041"><rect x="13.5" y="12" width="21" height="24" rx="0"/></clipPath></defs><g><rect x="0" y="0" width="48" height="48" rx="24" fill="#67C23A" fill-opacity="1" style="mix-blend-mode:passthrough"/><g><rect x="13.5" y="8" width="21" height="32" rx="0" fill="#000000" fill-opacity="0" style="mix-blend-mode:passthrough"/><g clip-path="url(#master_svg0_1_041)"><g transform="matrix(1,0,0,-1,0,64.03125)"><g><path d="M34.0781,46.593725Q34.5,46.125025,34.5,45.515625Q34.5,44.906225,34.0781,44.437525L22.07812,32.4375Q21.60938,32.015625,21,32.015625Q20.39062,32.015625,19.92188,32.4375L13.921875,38.437505Q13.5,38.906245,13.5,39.515625Q13.5,40.125005,13.921875,40.593745Q14.390625,41.015625,15,41.015625Q15.60938,41.015625,16.07812,40.593745L21,35.625005L31.9219,46.593725Q32.3906,47.015625,33,47.015625Q33.6094,47.015625,34.0781,46.593725Z" fill="#FFFFFF" fill-opacity="1" style="mix-blend-mode:passthrough"/></g></g></g></g></g></svg>